# xmcd
#
# Track frame offsets: 
#        183
#        9808
#        22183
#
# Disc length: 442 seconds
#
# Revision: 2
# Processed by: cddbd v1.5.2PL0 Copyright (c) Steve Scherf et al.
# Submitted via: ExactAudioCopy v1.0b3
#
DISCID=1601b803
DTITLE=James Brown - Papa's Got A Brand New Bag
DYEAR=1959
DGENRE=Pop/Funk
TTITLE0=Papa's Got A Brand New Bag (Part 1)
TTITLE1=I Got You (I Feel Good)
TTITLE2=I Can't Help It
EXTD=
EXTT0=
EXTT1=
EXTT2=
PLAYORDER=
